REM DIRINDEX 1\5,1\2\6,1\2\7,1\3\8,1\3\9,1\4\10,1\4\11,1\4\12
REM DIRNAME folder01,folder02,folder03,folder04,folder05,folder06,folder07,folder08,folder09,folder10,folder11,folder12
TITLE ""
FILE "EJE_DB3000_5th_6C_52.mp3" MP3
  TRACK 01 AUDIO
    TITLE "0:"
    INDEX 01 00:00:00
  TRACK 02 AUDIO
    TITLE "10:cjc026_12174"
    INDEX 01 00:00:05
  TRACK 03 AUDIO
    TITLE "0:"
    INDEX 01 00:01:05
  TRACK 04 AUDIO
    TITLE "11:cjc026_12175"
    INDEX 01 00:01:30
  TRACK 05 AUDIO
    TITLE "0:"
    INDEX 01 00:02:45
  TRACK 06 AUDIO
    TITLE "12:cjc026_12176"
    INDEX 01 00:02:71
  TRACK 07 AUDIO
    TITLE "0:"
    INDEX 01 00:03:68
  TRACK 08 AUDIO
    TITLE "10:cjc026_12177"
    INDEX 01 00:04:21
  TRACK 09 AUDIO
    TITLE "0:"
    INDEX 01 00:05:18
  TRACK 10 AUDIO
    TITLE "11:cjc026_12178"
    INDEX 01 00:05:46
  TRACK 11 AUDIO
    TITLE "0:"
    INDEX 01 00:07:00
  TRACK 12 AUDIO
    TITLE "12:cjc026_12179"
    INDEX 01 00:07:27
  TRACK 13 AUDIO
    TITLE "0:"
    INDEX 01 00:08:23
  TRACK 14 AUDIO
    TITLE "10:cjc026_12180"
    INDEX 01 00:08:52
  TRACK 15 AUDIO
    TITLE "0:"
    INDEX 01 00:09:59
  TRACK 16 AUDIO
    TITLE "11:cjc026_12181"
    INDEX 01 00:10:10
  TRACK 17 AUDIO
    TITLE "0:"
    INDEX 01 00:11:25
  TRACK 18 AUDIO
    TITLE "12:cjc026_12182"
    INDEX 01 00:11:52
  TRACK 19 AUDIO
    TITLE "0:"
    INDEX 01 00:12:61
  TRACK 20 AUDIO
    TITLE "10:cjc026_12183"
    INDEX 01 00:13:12
  TRACK 21 AUDIO
    TITLE "0:"
    INDEX 01 00:14:17
  TRACK 22 AUDIO
    TITLE "11:cjc026_12184"
    INDEX 01 00:14:45
  TRACK 23 AUDIO
    TITLE "0:"
    INDEX 01 00:15:62
  TRACK 24 AUDIO
    TITLE "12:cjc026_12185"
    INDEX 01 00:16:10
  TRACK 25 AUDIO
    TITLE "0:"
    INDEX 01 00:17:20
  TRACK 26 AUDIO
    TITLE "10:cjc026_12186"
    INDEX 01 00:17:45
  TRACK 27 AUDIO
    TITLE "0:"
    INDEX 01 00:18:41
  TRACK 28 AUDIO
    TITLE "11:cjc026_12187"
    INDEX 01 00:18:66
  TRACK 29 AUDIO
    TITLE "0:"
    INDEX 01 00:19:63
  TRACK 30 AUDIO
    TITLE "12:cjc026_12188"
    INDEX 01 00:20:16
  TRACK 31 AUDIO
    TITLE "0:"
    INDEX 01 00:21:11
  TRACK 32 AUDIO
    TITLE "10:cjc026_12189"
    INDEX 01 00:21:37
  TRACK 33 AUDIO
    TITLE "0:"
    INDEX 01 00:22:40
  TRACK 34 AUDIO
    TITLE "11:cjc026_12190"
    INDEX 01 00:22:68
  TRACK 35 AUDIO
    TITLE "0:"
    INDEX 01 00:24:37
  TRACK 36 AUDIO
    TITLE "12:cjc026_12191"
    INDEX 01 00:24:63
  TRACK 37 AUDIO
    TITLE "0:"
    INDEX 01 00:25:66
  TRACK 38 AUDIO
    TITLE "10:cjc026_12192"
    INDEX 01 00:26:18
  TRACK 39 AUDIO
    TITLE "0:"
    INDEX 01 00:27:26
  TRACK 40 AUDIO
    TITLE "11:cjc026_12193"
    INDEX 01 00:27:51
  TRACK 41 AUDIO
    TITLE "0:"
    INDEX 01 00:29:13
  TRACK 42 AUDIO
    TITLE "12:cjc026_12194"
    INDEX 01 00:29:36
  TRACK 43 AUDIO
    TITLE "0:"
    INDEX 01 00:30:46
  TRACK 44 AUDIO
    TITLE "10:cjc026_12195"
    INDEX 01 00:30:69
  TRACK 45 AUDIO
    TITLE "0:"
    INDEX 01 00:32:07
  TRACK 46 AUDIO
    TITLE "11:cjc026_12196"
    INDEX 01 00:32:31
  TRACK 47 AUDIO
    TITLE "0:"
    INDEX 01 00:34:06
  TRACK 48 AUDIO
    TITLE "12:cjc026_12197"
    INDEX 01 00:34:32
  TRACK 49 AUDIO
    TITLE "0:"
    INDEX 01 00:35:43
  TRACK 50 AUDIO
    TITLE "10:cjc026_12198"
    INDEX 01 00:35:68
  TRACK 51 AUDIO
    TITLE "0:"
    INDEX 01 00:37:03
  TRACK 52 AUDIO
    TITLE "11:cjc026_12199"
    INDEX 01 00:37:28
  TRACK 53 AUDIO
    TITLE "0:"
    INDEX 01 00:38:73
  TRACK 54 AUDIO
    TITLE "12:cjc026_12200"
    INDEX 01 00:39:23
  TRACK 55 AUDIO
    TITLE "0:"
    INDEX 01 00:40:30
  TRACK 56 AUDIO
    TITLE "10:cjc026_12201"
    INDEX 01 00:40:56
  TRACK 57 AUDIO
    TITLE "0:"
    INDEX 01 00:42:45
  TRACK 58 AUDIO
    TITLE "11:cjc026_12202"
    INDEX 01 00:42:70
  TRACK 59 AUDIO
    TITLE "0:"
    INDEX 01 00:45:06
  TRACK 60 AUDIO
    TITLE "12:cjc026_12203"
    INDEX 01 00:45:30
  TRACK 61 AUDIO
    TITLE "0:"
    INDEX 01 00:47:19
  TRACK 62 AUDIO
    TITLE "10:cjc026_12204"
    INDEX 01 00:47:44
  TRACK 63 AUDIO
    TITLE "0:"
    INDEX 01 00:48:40
  TRACK 64 AUDIO
    TITLE "11:cjc026_12205"
    INDEX 01 00:48:67
  TRACK 65 AUDIO
    TITLE "0:"
    INDEX 01 00:50:29
  TRACK 66 AUDIO
    TITLE "12:cjc026_12206"
    INDEX 01 00:50:54
  TRACK 67 AUDIO
    TITLE "0:"
    INDEX 01 00:51:48
  TRACK 68 AUDIO
    TITLE "10:cjc026_12207"
    INDEX 01 00:52:00
  TRACK 69 AUDIO
    TITLE "0:"
    INDEX 01 00:52:73
  TRACK 70 AUDIO
    TITLE "11:cjc026_12208"
    INDEX 01 00:53:23
  TRACK 71 AUDIO
    TITLE "0:"
    INDEX 01 00:54:60
  TRACK 72 AUDIO
    TITLE "12:cjc026_12209"
    INDEX 01 00:55:08
  TRACK 73 AUDIO
    TITLE "0:"
    INDEX 01 00:56:06
  TRACK 74 AUDIO
    TITLE "10:cjc026_12210"
    INDEX 01 00:56:31
  TRACK 75 AUDIO
    TITLE "0:"
    INDEX 01 01:01:05
  TRACK 76 AUDIO
    TITLE "11:cjc026_12211"
    INDEX 01 01:01:33
  TRACK 77 AUDIO
    TITLE "0:"
    INDEX 01 01:03:41
  TRACK 78 AUDIO
    TITLE "12:cjc026_12212"
    INDEX 01 01:03:67
  TRACK 79 AUDIO
    TITLE "0:"
    INDEX 01 01:08:40
  TRACK 80 AUDIO
    TITLE "10:cjc026_12213"
    INDEX 01 01:08:66
  TRACK 81 AUDIO
    TITLE "0:"
    INDEX 01 01:10:59
  TRACK 82 AUDIO
    TITLE "11:cjc026_12214"
    INDEX 01 01:11:09
  TRACK 83 AUDIO
    TITLE "0:"
    INDEX 01 01:12:52
  TRACK 84 AUDIO
    TITLE "12:cjc026_12215"
    INDEX 01 01:13:02
  TRACK 85 AUDIO
    TITLE "0:"
    INDEX 01 01:14:70
